<svg xmlns="http://www.w3.org/2000/svg" xmlns:xlink="http://www.w3.org/1999/xlink" width="1000" zoomAndPan="magnify" viewBox="0 0 750 749.999995" height="1000" preserveAspectRatio="xMidYMid meet" version="1.2"><defs><clipPath id="94ff1ecdb9"><path d="M 92 37 L 560.464844 37 L 560.464844 715 L 92 715 Z M 92 37 "/></clipPath><clipPath id="72c474e99f"><path d="M 75 19.511719 L 560.464844 19.511719 L 560.464844 730.078125 L 75 730.078125 Z M 75 19.511719 "/></clipPath><clipPath id="95b02f81aa"><path d="M 148.6875 87.722656 L 723.242188 87.722656 L 723.242188 662.277344 L 148.6875 662.277344 Z M 148.6875 87.722656 "/></clipPath><clipPath id="191a54fd7b"><path d="M 554.917969 87.722656 L 723.242188 256.050781 L 723.242188 493.949219 L 554.917969 662.277344 L 317.015625 662.277344 L 148.6875 493.949219 L 148.6875 256.050781 L 317.015625 87.722656 Z M 554.917969 87.722656 "/></clipPath><clipPath id="739efe130b"><path d="M 182.761719 127.273438 L 678.410156 127.273438 L 678.410156 622.921875 L 182.761719 622.921875 Z M 182.761719 127.273438 "/></clipPath><clipPath id="e250eab222"><path d="M 533.199219 127.273438 L 678.410156 272.480469 L 678.410156 477.710938 L 533.199219 622.921875 L 327.96875 622.921875 L 182.761719 477.710938 L 182.761719 272.480469 L 327.96875 127.273438 Z M 533.199219 127.273438 "/></clipPath><clipPath id="7c9077bb72"><path d="M 292.585938 231.574219 L 568.585938 231.574219 L 568.585938 507.574219 L 292.585938 507.574219 Z M 292.585938 231.574219 "/></clipPath><clipPath id="84a0517acc"><path d="M 430.585938 231.574219 C 354.371094 231.574219 292.585938 293.359375 292.585938 369.574219 C 292.585938 445.792969 354.371094 507.574219 430.585938 507.574219 C 506.800781 507.574219 568.585938 445.792969 568.585938 369.574219 C 568.585938 293.359375 506.800781 231.574219 430.585938 231.574219 Z M 430.585938 231.574219 "/></clipPath><clipPath id="7d6e3163c7"><path d="M 359.71875 302.136719 L 501.972656 302.136719 L 501.972656 437.015625 L 359.71875 437.015625 Z M 359.71875 302.136719 "/></clipPath><clipPath id="e1c6790244"><path d="M 430.585938 302.136719 C 391.449219 302.136719 359.71875 332.332031 359.71875 369.574219 C 359.71875 406.820312 391.449219 437.015625 430.585938 437.015625 C 469.722656 437.015625 501.449219 406.820312 501.449219 369.574219 C 501.449219 332.332031 469.722656 302.136719 430.585938 302.136719 Z M 430.585938 302.136719 "/></clipPath></defs><g id="58ddabe13a"><rect x="0" width="750" y="0" height="749.999995" style="fill:#ffffff;fill-opacity:1;stroke:none;"/><rect x="0" width="750" y="0" height="749.999995" style="fill:#ffffff;fill-opacity:1;stroke:none;"/><g clip-rule="nonzero" clip-path="url(#94ff1ecdb9)"><path style=" stroke:none;fill-rule:nonzero;fill:#000000;fill-opacity:1;" d="M 570.175781 37.277344 L 290.390625 37.277344 L 92.765625 234.902344 L 92.765625 514.6875 L 290.390625 714.535156 L 570.175781 714.535156 L 770.023438 514.6875 L 770.023438 234.902344 Z M 570.175781 37.277344 "/></g><g clip-rule="nonzero" clip-path="url(#72c474e99f)"><path style=" stroke:none;fill-rule:nonzero;fill:#000000;fill-opacity:1;" d="M 570.175781 730.078125 L 290.390625 730.078125 C 285.949219 730.078125 281.507812 727.859375 279.289062 725.636719 L 81.660156 528.011719 C 77.21875 523.570312 75 519.128906 75 514.6875 L 75 234.902344 C 75 230.460938 77.21875 226.019531 79.441406 223.800781 L 277.066406 26.171875 C 281.507812 21.730469 285.949219 19.511719 290.390625 19.511719 L 570.175781 19.511719 C 574.617188 19.511719 579.058594 21.730469 581.28125 23.953125 L 778.90625 221.578125 C 783.347656 226.019531 785.566406 230.460938 785.566406 234.902344 L 785.566406 514.6875 C 785.566406 519.128906 783.347656 523.570312 781.125 525.789062 L 583.5 723.417969 C 579.058594 727.859375 574.617188 730.078125 570.175781 730.078125 Z M 297.050781 696.769531 L 563.515625 696.769531 L 752.261719 508.027344 L 752.261719 241.5625 L 563.515625 52.820312 L 297.050781 52.820312 L 108.308594 241.5625 L 108.308594 508.027344 Z M 297.050781 696.769531 "/></g><g clip-rule="nonzero" clip-path="url(#95b02f81aa)"><g clip-rule="nonzero" clip-path="url(#191a54fd7b)"><path style=" stroke:none;fill-rule:nonzero;fill:#ffffff;fill-opacity:1;" d="M 148.6875 87.722656 L 723.242188 87.722656 L 723.242188 662.277344 L 148.6875 662.277344 Z M 148.6875 87.722656 "/></g></g><g clip-rule="nonzero" clip-path="url(#739efe130b)"><g clip-rule="nonzero" clip-path="url(#e250eab222)"><path style=" stroke:none;fill-rule:nonzero;fill:#4d1181;fill-opacity:1;" d="M 182.761719 127.273438 L 678.410156 127.273438 L 678.410156 622.921875 L 182.761719 622.921875 Z M 182.761719 127.273438 "/></g></g><g clip-rule="nonzero" clip-path="url(#7c9077bb72)"><g clip-rule="nonzero" clip-path="url(#84a0517acc)"><path style=" stroke:none;fill-rule:nonzero;fill:#ffffff;fill-opacity:1;" d="M 292.585938 231.574219 L 568.585938 231.574219 L 568.585938 507.574219 L 292.585938 507.574219 Z M 292.585938 231.574219 "/></g></g><g clip-rule="nonzero" clip-path="url(#7d6e3163c7)"><g clip-rule="nonzero" clip-path="url(#e1c6790244)"><path style=" stroke:none;fill-rule:nonzero;fill:#000000;fill-opacity:1;" d="M 359.71875 302.136719 L 501.445312 302.136719 L 501.445312 437.015625 L 359.71875 437.015625 Z M 359.71875 302.136719 "/></g></g></g></svg>